HIERARCHY
ROOT Hips
{
	OFFSET -3.958830 18.904000 13.208200
	CHANNELS 6 Xposition Yposition Zposition Zrotation Yrotation Xrotation 
	JOINT LHipJoint
	{
		OFFSET 0.000000 0.000000 0.000000
		CHANNELS 3 Zrotation Yrotation Xrotation
		JOINT LeftUpLeg
		{
			OFFSET 1.800000 -1.400000 0.085000
			CHANNELS 3 Zrotation Yrotation Xrotation
			JOINT LeftLeg
			{
				OFFSET 2.215000 -6.000000 0.000000
				CHANNELS 3 Zrotation Yrotation Xrotation
				JOINT LeftFoot
				{
					OFFSET 2.500000 -6.900000 0.000000
					CHANNELS 3 Zrotation Yrotation Xrotation
					JOINT LeftToeBase
					{
						OFFSET 0.200000 -0.500000 1.950000
						CHANNELS 3 Zrotation Yrotation Xrotation
						End Site
						{
							OFFSET 0.000000 0.000000 0.000000
						}
					}
				}
			}
		}
	}
	JOINT RHipJoint
	{
		OFFSET 0.000000 0.000000 0.000000
		CHANNELS 3 Zrotation Yrotation Xrotation
		JOINT RightUpLeg
		{
			OFFSET -1.800000 -1.400000 0.085000
			CHANNELS 3 Zrotation Yrotation Xrotation
			JOINT RightLeg
			{
				OFFSET -2.215000 -6.000000 0.000000
				CHANNELS 3 Zrotation Yrotation Xrotation
				JOINT RightFoot
				{
					OFFSET -2.500000 -6.900000 0.000000
					CHANNELS 3 Zrotation Yrotation Xrotation
					JOINT RightToeBase
					{
						OFFSET -0.200000 -0.500000 1.950000
						CHANNELS 3 Zrotation Yrotation Xrotation
						End Site
						{
							OFFSET 0.000000 0.000000 0.000000
						}
					}
				}
			}
		}
	}
	JOINT LowerBack
	{
		OFFSET 0.000000 0.000000 0.000000
		CHANNELS 3 Zrotation Yrotation Xrotation
		JOINT Spine
		{
			OFFSET -0.087000 1.940000 -0.288900
			CHANNELS 3 Zrotation Yrotation Xrotation
			JOINT Spine1
			{
				OFFSET 0.000000 1.950000 0.060000
				CHANNELS 3 Zrotation Yrotation Xrotation
				JOINT Neck
				{
					OFFSET 0.000000 0.000000 0.000000
					CHANNELS 3 Zrotation Yrotation Xrotation
					JOINT Neck1
					{
						OFFSET 0.000000 1.600000 0.340000
						CHANNELS 3 Zrotation Yrotation Xrotation
						JOINT Head
						{
							OFFSET 0.000000 1.667000 -0.240000
							CHANNELS 3 Zrotation Yrotation Xrotation
							End Site
							{
								OFFSET 0.000000 0.000000 0.000000
							}
						}
					}
				}
				JOINT LeftShoulder
				{
					OFFSET 0.000000 0.000000 0.000000
					CHANNELS 3 Zrotation Yrotation Xrotation
					JOINT LeftArm
					{
						OFFSET 2.700000 1.550000 -0.730000
						CHANNELS 3 Zrotation Yrotation Xrotation
						JOINT LeftForeArm
						{
							OFFSET 5.450000 0.000000 0.000000
							CHANNELS 3 Zrotation Yrotation Xrotation
							JOINT LeftHand
							{
								OFFSET 3.450000 0.000000 0.000000
								CHANNELS 3 Zrotation Yrotation Xrotation
								JOINT LeftHandIndex1
								{
									OFFSET 0.750000 0.000000 0.000000
									CHANNELS 3 Zrotation Yrotation Xrotation
									End Site
									{
										OFFSET 0.000000 0.000000 0.000000
									}
								}
							}
						}
					}
				}
				JOINT RightShoulder
				{
					OFFSET 0.000000 0.000000 0.000000
					CHANNELS 3 Zrotation Yrotation Xrotation
					JOINT RightArm
					{
						OFFSET -2.700000 1.550000 -0.730000
						CHANNELS 3 Zrotation Yrotation Xrotation
						JOINT RightForeArm
						{
							OFFSET -5.450000 0.000000 0.000000
							CHANNELS 3 Zrotation Yrotation Xrotation
							JOINT RightHand
							{
								OFFSET -3.450000 0.000000 0.000000
								CHANNELS 3 Zrotation Yrotation Xrotation
								JOINT RightHandIndex1
								{
									OFFSET -0.750000 0.000000 0.000000
									CHANNELS 3 Zrotation Yrotation Xrotation
									End Site
									{
										OFFSET 0.000000 0.000000 0.000000
									}
								}
							}
						}
					}
				}
			}
		}
	}
}
MOTION
Frames: 4
Frame Time: 0.016667
-0.148490 16.767640 -1.095040 -5.418041 -14.675106 3.190410 -15.978488 10.526904 6.174472 23.596632 -6.750187 -46.327122 -24.578973 25.738877 52.563127 1.978004 12.851645 0.311409 0.370890 -0.109500 0.629760 18.247476 -6.496834 4.458101 1.520059 16.211067 -45.135110 -6.070910 -7.392423 68.719115 -1.905541 -9.352052 1.291352 -0.543860 -0.372720 0.264280 -2.676108 -4.648748 -10.309383 7.190631 -3.610179 51.351554 0.278907 4.166037 -11.871282 5.354678 -5.543724 -19.699024 -17.467457 8.779761 43.995411 -7.548940 8.132220 -27.859350 -2.143210 -24.015251 7.875904 10.263001 -11.136574 -2.248022 -3.900125 -6.228329 0.103048 -3.176736 2.599853 0.910200 -0.517890 0.485840 0.055630 -4.828079 32.162197 9.810276 12.677218 14.860405 -10.098190 63.127138 73.849189 40.703683 2.419038 -1.640949 0.168430 -0.158850 -0.260550 -0.204670 
-0.122990 16.802950 -1.066880 -5.529742 -15.648127 3.550990 -15.970061 10.330029 6.287367 25.060911 -6.049963 -46.449748 -26.598669 26.965886 51.692207 2.111385 12.959394 0.277299 0.385110 -0.075210 0.599830 18.280287 -6.403985 4.503170 -1.086335 16.435275 -46.548686 -2.939641 -9.986076 69.601714 -1.990905 -9.745534 1.179281 -0.567530 -0.415540 0.282900 -2.785350 -4.472495 -10.392586 8.430195 -4.657124 50.852804 -1.110094 3.699019 -12.568959 5.832185 -5.804441 -20.006556 -18.621160 9.603434 44.874083 -7.056600 8.189820 -28.127060 -2.879345 -23.191721 8.304818 8.240670 -10.815523 -1.952667 -2.781722 -3.160724 -0.249738 -3.204218 2.637700 0.891470 -0.550450 0.511080 0.066190 -4.905229 31.529579 9.956389 11.615006 15.043264 -8.725655 73.352406 76.894764 49.125295 2.714324 -1.320689 0.235170 -0.222470 -0.280260 -0.172520 
-0.078390 16.853490 -1.014580 -5.384063 -17.077704 4.463151 -15.947843 9.922950 6.411118 27.107510 -4.802280 -46.922097 -29.003241 28.847559 50.637721 2.250814 13.203067 0.281498 0.296560 -0.167360 0.518900 18.350799 -6.215337 4.664874 -7.877297 16.376522 -49.944102 5.020130 -16.487028 70.225513 -2.180930 -10.813838 0.923205 -0.632700 -0.365680 0.231440 -3.018360 -4.047319 -10.531717 11.161260 -6.530542 49.208071 -4.126020 2.529462 -13.060190 6.655288 -6.136697 -19.444751 -19.071197 9.723465 44.453310 -8.490280 8.295940 -28.740440 -3.715851 -21.274726 9.347302 4.264121 -7.341638 -1.700680 -1.436025 -2.396201 -0.304990 -3.185152 2.657122 0.885830 -0.551550 0.468230 0.078810 -6.045096 29.845923 8.687825 11.207030 15.188441 -9.313778 97.448666 78.205233 68.637951 3.679077 0.941995 0.196260 -0.177190 -0.253820 -0.150380 
-0.046150 16.916580 -0.920330 -5.138342 -19.142248 5.487185 -15.939501 9.462504 6.541235 30.145610 -2.857855 -46.609964 -31.460243 31.384716 49.885371 2.479551 13.491936 0.259508 0.242860 -0.220970 0.459330 18.415600 -6.006866 4.877866 -15.179405 15.587341 -52.474541 14.521339 -22.942758 67.170486 -2.382282 -11.671979 0.710536 -0.712240 -0.342570 0.246770 -3.262074 -3.522122 -10.722857 14.007248 -7.852170 47.177032 -7.318381 2.030858 -14.050642 7.248295 -6.176718 -19.366679 -18.687549 10.241935 45.164255 -9.325380 9.201980 -27.830910 -5.197086 -20.573086 10.434208 0.971619 -4.017402 -1.631217 -1.933835 0.757723 -0.586664 -3.197352 2.722646 0.850140 -0.553700 0.466050 0.093710 -6.035405 29.536745 7.484844 10.839019 11.409438 -13.593068 122.492177 71.723541 95.182749 2.826365 0.280112 0.238130 -0.205610 -0.246400 -0.103720 
